<?xml version="1.0" standalone="no"?>
<!DOCTYPE svg PUBLIC "-//W3C//DTD SVG 20010904//EN"
 "http://www.w3.org/TR/2001/REC-SVG-20010904/DTD/svg10.dtd">
<svg version="1.0" xmlns="http://www.w3.org/2000/svg"
 width="512.000000pt" height="512.000000pt" viewBox="0 0 512.000000 512.000000"
 preserveAspectRatio="xMidYMid meet">
<metadata>
Created by potrace 1.14, written by Peter Selinger 2001-2017
</metadata>
<g transform="translate(0.000000,512.000000) scale(0.100000,-0.100000)"
fill="#000000" stroke="none">
<path d="M2500 4970 c-140 -20 -258 -97 -318 -210 -47 -87 -50 -212 -8 -302
55 -117 179 -206 311 -225 22 -3 42 -7 44 -9 3 -3 4 -170 2 -258 -1 -22 -8
-26 -58 -36 -60 -11 -153 -49 -153 -62 0 -5 -5 -8 -11 -8 -16 0 -82 -68 -112
-117 -47 -74 -59 -188 -30 -275 l20 -58 -21 -13 c-12 -7 -73 -39 -136 -71
l-115 -58 -49 47 c-48 47 -129 91 -183 101 -14 3 -30 7 -35 10 -15 9 -132 6
-182 -6 -75 -17 -149 -56 -201 -107 l-48 -46 -133 69 c-116 60 -165 94 -135
94 5 0 15 24 22 53 60 246 -142 466 -420 453 -335 -15 -500 -374 -278 -606
157 -165 451 -162 614 7 l33 33 72 -39 c139 -73 183 -95 191 -93 11 3 9 -9
-12 -68 -28 -77 -22 -189 13 -258 26 -52 105 -142 125 -142 6 0 11 -4 11 -9 0
-15 117 -62 170 -68 l51 -6 -3 -145 -3 -145 -25 -4 c-14 -2 -37 -5 -52 -7 -36
-6 -131 -54 -174 -89 -73 -60 -125 -170 -126 -264 0 -26 9 -75 20 -108 11 -33
20 -60 19 -61 -1 0 -40 -19 -86 -42 -46 -23 -89 -45 -95 -50 -6 -4 -30 -16
-53 -26 l-41 -18 -39 39 c-101 102 -263 147 -413 112 -120 -28 -226 -111 -278
-219 -23 -46 -27 -68 -27 -140 0 -76 4 -93 33 -152 88 -180 312 -266 518 -199
226 72 330 291 240 502 -5 12 23 31 132 86 l138 71 39 -40 c79 -79 179 -120
296 -120 126 0 214 34 304 116 29 27 53 42 60 37 5 -5 65 -36 133 -70 67 -34
122 -64 122 -66 0 -3 -8 -24 -17 -47 -27 -66 -23 -188 9 -258 50 -112 193
-217 308 -228 37 -3 50 -9 51 -21 3 -69 -1 -263 -6 -271 -4 -6 -12 -9 -18 -7
-17 6 -104 -21 -158 -48 -64 -33 -137 -109 -168 -174 -22 -47 -26 -70 -26
-141 0 -71 4 -94 26 -140 86 -181 316 -270 518 -201 192 66 297 237 256 416
-32 140 -142 242 -301 280 l-72 17 3 137 c1 75 3 139 3 144 1 4 15 7 30 7 74
0 199 66 266 140 61 68 80 121 81 220 0 90 -3 111 -24 148 -7 13 -11 25 -9 27
2 1 64 34 140 73 l136 71 30 -32 c16 -18 38 -39 49 -48 27 -22 121 -65 161
-74 40 -8 131 -9 187 -1 60 8 178 71 218 115 l36 40 118 -62 c175 -92 159 -77
139 -129 -46 -120 -16 -262 77 -360 130 -137 342 -172 519 -85 54 26 158 121
158 143 0 6 6 17 13 23 18 14 42 114 41 166 -1 52 -30 149 -49 169 -8 8 -15
19 -15 24 0 14 -97 100 -133 118 -136 71 -299 70 -437 -1 -18 -9 -55 -38 -82
-63 l-49 -46 -97 49 c-53 27 -109 57 -124 67 -14 10 -33 18 -42 18 -14 0 -15
4 -6 21 45 84 46 203 1 294 -49 98 -165 191 -261 209 -14 2 -27 5 -30 6 -3 1
-17 2 -31 2 l-26 1 1 146 c1 138 2 146 21 149 216 32 366 184 367 372 0 43 -6
82 -20 117 l-21 52 72 35 c40 20 101 52 136 71 l64 34 31 -30 c171 -169 436
-176 609 -17 94 86 129 202 103 335 -18 94 -120 205 -226 247 -65 26 -77 28
-161 32 -165 6 -323 -86 -387 -225 -31 -68 -38 -176 -16 -236 25 -65 24 -67
-56 -108 -41 -21 -94 -49 -118 -62 -72 -40 -75 -40 -123 8 -84 85 -197 123
-336 114 -71 -4 -97 -11 -158 -41 -40 -20 -91 -54 -114 -77 l-41 -41 -68 34
c-228 115 -214 106 -198 131 17 27 33 109 30 157 -4 56 -15 105 -25 108 -5 2
-9 12 -9 23 0 10 -4 19 -10 19 -5 0 -10 6 -10 13 0 7 -21 34 -47 60 -54 55
-163 111 -234 121 l-46 7 0 140 c0 77 3 142 7 144 4 2 27 7 50 10 108 13 244
110 295 208 26 53 28 61 28 157 0 99 -3 114 -38 174 -79 135 -260 218 -425
196z m-258 -1628 c23 -28 93 -78 138 -99 79 -38 209 -46 301 -19 l56 16 124
-65 c68 -36 156 -81 196 -101 68 -35 72 -39 82 -83 17 -70 51 -129 102 -180
61 -61 130 -97 212 -113 56 -10 67 -16 68 -33 3 -72 -1 -256 -5 -263 -3 -5
-18 -9 -33 -10 -78 -2 -205 -71 -262 -142 -35 -44 -67 -109 -75 -154 -3 -16
-9 -33 -13 -37 -4 -4 -71 -40 -148 -79 -77 -40 -162 -85 -190 -99 l-50 -27
-55 17 c-81 26 -227 20 -300 -11 -55 -23 -130 -77 -162 -115 -17 -20 -18 -19
-155 50 l-138 70 19 55 c25 75 23 161 -5 235 -17 46 -38 75 -87 124 l-65 63
-1 204 c-1 201 -1 203 21 215 26 14 90 81 115 120 50 79 63 198 30 291 l-20
57 122 62 c66 34 125 65 131 70 14 14 22 11 47 -19z m784 -38 c71 -37 133 -70
138 -74 4 -5 -1 -33 -13 -64 -11 -31 -18 -56 -14 -56 4 0 3 -4 -3 -10 -6 -6
-28 0 -64 19 -30 16 -105 55 -167 87 l-112 58 52 52 c29 29 52 53 53 53 1 1
59 -29 130 -65z m-1280 -763 l0 -179 -25 10 c-14 5 -39 12 -56 14 -82 12 -75
-2 -75 159 l0 145 33 1 c17 0 50 6 72 14 22 7 43 13 46 14 3 1 5 -80 5 -178z
m1411 -608 c12 -38 21 -69 20 -69 -8 -6 -264 -134 -268 -134 -8 0 -113 99
-108 103 2 1 63 33 134 69 72 37 144 74 160 82 17 9 32 16 36 16 3 0 15 -30
26 -67z"/>
</g>
</svg>
